<svg width="54" height="46" viewBox="0 0 54 46" fill="none" xmlns="http://www.w3.org/2000/svg">
<g clip-path="url(#clip0)">
<path d="M53.1035 45.9999H0.896484C0.400781 45.9999 0 45.6206 0 45.1514V11.0707C0 10.6015 0.400781 10.2222 0.896484 10.2222H53.093C53.5887 10.2222 53.9894 10.6015 53.9894 11.0707V45.1414C54 45.6206 53.5992 45.9999 53.1035 45.9999ZM1.80352 44.2929H52.207V11.9292H1.80352V44.2929Z" fill="black"/>
<path d="M47.7034 11.9292H6.29639C5.80068 11.9292 5.3999 11.5499 5.3999 11.0807V5.95961C5.3999 5.49042 5.80068 5.11108 6.29639 5.11108H47.6929C48.1886 5.11108 48.5894 5.49042 48.5894 5.95961V11.0707C48.5999 11.5499 48.1991 11.9292 47.7034 11.9292ZM7.20342 10.2222H46.8069V6.81812H7.20342V10.2222Z" fill="black"/>
<path d="M42.3036 6.81814H11.6965C11.2008 6.81814 10.8 6.4388 10.8 5.96962V0.848524C10.8 0.37934 11.2008 0 11.6965 0H42.293C42.7887 0 43.1895 0.37934 43.1895 0.848524V5.95964C43.2001 6.4388 42.7993 6.81814 42.3036 6.81814ZM12.6036 5.11111H41.4071V1.70703H12.6036V5.11111Z" fill="black"/>
<path d="M22.5175 35.8278C22.2011 35.8278 21.8847 35.7479 21.5999 35.5982C21.0304 35.2887 20.6929 34.7397 20.6929 34.1207V21.303C20.6929 20.6841 21.0304 20.1351 21.5999 19.8256C22.1694 19.5161 22.8655 19.5161 23.4351 19.8256L35.0894 26.2345C35.6589 26.5439 35.9858 27.093 35.9858 27.7119C35.9858 28.3308 35.6483 28.8799 35.0894 29.1893L23.4351 35.5982C23.1503 35.7479 22.8339 35.8278 22.5175 35.8278ZM22.5386 21.303L22.4964 34.1207L34.1929 27.7119L22.5386 21.303Z" fill="#FCD806"/>
</g>
<defs>
<clipPath id="clip0">
<rect width="54" height="46" fill="white"/>
</clipPath>
</defs>
</svg>
