<svg width="49" height="38" viewBox="0 0 49 38" fill="none" xmlns="http://www.w3.org/2000/svg">
<path d="M30.8362 18.3391L21.5431 12.5565C21.2897 12.3913 20.9517 12.3913 20.6983 12.5565C20.4448 12.6391 20.2759 12.887 20.2759 13.2174V24.7826C20.2759 25.1131 20.4448 25.3609 20.6983 25.5261C20.8673 25.6087 20.9517 25.6087 21.1207 25.6087C21.2897 25.6087 21.4586 25.5261 21.5431 25.4435L30.8362 19.6609C31.0897 19.4957 31.2586 19.2478 31.2586 19C31.2586 18.7522 31.0897 18.4217 30.8362 18.3391ZM21.9655 23.2957V14.7044L28.8086 19L21.9655 23.2957Z" fill="#FFDA00"/>
<path d="M48.1552 0H39.7069H9.2931H0.844828C0.337931 0 0 0.330435 0 0.826087V9.91304V19V28.087V37.1739C0 37.6696 0.337931 38 0.844828 38H9.2931H39.7069H48.1552C48.6621 38 49 37.6696 49 37.1739V28.087V19V9.91304V0.826087C49 0.330435 48.6621 0 48.1552 0ZM8.44828 18.1739H1.68966V10.7391H8.44828V18.1739ZM1.68966 19.8261H8.44828V27.2609H1.68966V19.8261ZM10.1379 28.087V19V9.91304V1.65217H38.8621V9.91304V19V28.087V36.3478H10.1379V28.087ZM47.3103 18.1739H40.5517V10.7391H47.3103V18.1739ZM40.5517 19.8261H47.3103V27.2609H40.5517V19.8261ZM47.3103 1.65217V9.08696H40.5517V1.65217H47.3103ZM1.68966 1.65217H8.44828V9.08696H1.68966V1.65217ZM1.68966 36.3478V28.913H8.44828V36.3478H1.68966ZM47.3103 36.3478H40.5517V28.913H47.3103V36.3478Z" fill="black"/>
</svg>
