<svg width="50" height="50" viewBox="0 0 50 50" fill="none" xmlns="http://www.w3.org/2000/svg">
<path d="M34.375 0H3.125C1.39648 0 0 1.39648 0 3.125V46.875C0 48.6035 1.39648 50 3.125 50H22.9199V47.9199H3.125C2.54883 47.9199 2.08008 47.4512 2.08008 46.875V3.125C2.08008 2.54883 2.54883 2.08008 3.125 2.08008H34.375C34.9512 2.08008 35.4199 2.54883 35.4199 3.125V12.5H37.5V3.125C37.5 1.39648 36.1035 0 34.375 0Z" fill="black"/>
<path d="M33.3398 8.33008H4.16992V10.4102H33.3398V8.33008Z" fill="#FCE40B"/>
<path d="M22.9199 39.5801H4.16992V41.6602H22.9199V39.5801Z" fill="#FCE40B"/>
<path d="M22.9199 4.16992H10.4199V6.25H22.9199V4.16992Z" fill="#FCE40B"/>
<path d="M27.0801 4.16992H25V6.25H27.0801V4.16992Z" fill="#FCE40B"/>
<path d="M19.7852 43.75H17.7051V45.8301H19.7852V43.75Z" fill="#FCE40B"/>
<path d="M46.875 14.5801H28.125C26.3965 14.5801 25 15.9766 25 17.7051V46.875C25 48.6035 26.3965 50 28.125 50H46.875C48.6035 50 50 48.6035 50 46.875V17.7051C50 15.9863 48.6035 14.5801 46.875 14.5801ZM47.9199 46.875C47.9199 47.4512 47.4512 47.9199 46.875 47.9199H28.125C27.5488 47.9199 27.0801 47.4512 27.0801 46.875V17.7051C27.0801 17.1289 27.5488 16.6602 28.125 16.6602H46.875C47.4512 16.6602 47.9199 17.1289 47.9199 17.7051V46.875Z" fill="black"/>
<path d="M45.8398 19.7949H29.1699V21.875H45.8398V19.7949Z" fill="#FCE40B"/>
<path d="M45.8398 42.7051H29.1699V44.7852H45.8398V42.7051Z" fill="#FCE40B"/>
<path d="M5.20508 12.5C4.62891 12.5 4.16016 12.9687 4.16016 13.5449V17.7148H6.25V14.5898H9.375V12.5H5.20508Z" fill="#FCE40B"/>
<path d="M30.2051 23.9551C29.6289 23.9551 29.1602 24.4238 29.1602 25V29.1699H31.25V26.0449H34.375V23.9648L30.2051 23.9551Z" fill="#FCE40B"/>
</svg>
