<svg width="81" height="18" viewBox="0 0 81 18" fill="none" xmlns="http://www.w3.org/2000/svg">
<path d="M6.28571 7.28571C8.17857 7.28571 9.71429 5.75 9.71429 3.85714C9.71429 1.96428 8.17857 0.428571 6.28571 0.428571C4.39286 0.428571 2.85714 1.96428 2.85714 3.85714C2.85714 5.75 4.39286 7.28571 6.28571 7.28571ZM14.8571 8.42857V5.28571C14.8571 5.13393 14.7232 5 14.5714 5H12.8571C12.7054 5 12.5714 5.13393 12.5714 5.28571V8.42857H9.42857C9.27679 8.42857 9.14286 8.5625 9.14286 8.71429V10.4286C9.14286 10.5804 9.27679 10.7143 9.42857 10.7143H12.5714V13.8571C12.5714 14.0089 12.7054 14.1429 12.8571 14.1429H14.5714C14.7232 14.1429 14.8571 14.0089 14.8571 13.8571V10.7143H18C18.1518 10.7143 18.2857 10.5804 18.2857 10.4286V8.71429C18.2857 8.5625 18.1518 8.42857 18 8.42857H14.8571ZM8.28572 10.4286V8.71429C8.28572 8.08929 8.80357 7.57143 9.42857 7.57143H11.4196C10.9107 7 10.2411 6.71429 9.48214 6.71429C9.33929 6.71429 9.24107 6.77679 9.13393 6.86607C8.25893 7.53571 7.41071 7.95536 6.28571 7.95536C5.16071 7.95536 4.3125 7.53571 3.4375 6.86607C3.33036 6.77679 3.23214 6.71429 3.08929 6.71429C0.473214 6.71429 0 9.8125 0 11.8304C0 13.2857 0.955357 14.1429 2.38393 14.1429H10.1875C10.7232 14.1429 11.2768 14.0179 11.7143 13.6964V11.5714H9.42857C8.80357 11.5714 8.28572 11.0536 8.28572 10.4286ZM29.2721 5.48C29.1015 4.57333 28.4615 4.12 27.3521 4.12C26.8081 4.12 26.3815 4.232 26.0721 4.456C25.7735 4.66933 25.6241 4.93067 25.6241 5.24C25.6241 5.54933 25.7201 5.79467 25.9121 5.976C26.1148 6.14667 26.4241 6.30667 26.8401 6.456L29.0961 7.336C29.8641 7.63467 30.4561 8.01333 30.8721 8.472C31.2881 8.92 31.4961 9.48533 31.4961 10.168C31.4961 11.1067 31.1441 11.8533 30.4401 12.408C29.7361 12.952 28.7335 13.224 27.4321 13.224C26.2801 13.224 25.3468 12.9413 24.6321 12.376C23.8321 11.7573 23.4108 10.8827 23.3681 9.752H25.2401C25.2401 10.6053 25.6828 11.144 26.5681 11.368C26.8348 11.4427 27.1868 11.48 27.6241 11.48C28.0615 11.48 28.4668 11.3733 28.8401 11.16C29.2135 10.936 29.4001 10.6427 29.4001 10.28C29.4001 9.90667 29.2988 9.624 29.0961 9.432C28.8935 9.22933 28.5628 9.04267 28.1041 8.872L26.0401 8.056C25.2401 7.74667 24.6268 7.384 24.2001 6.968C23.7735 6.552 23.5601 5.976 23.5601 5.24C23.5601 4.376 23.8961 3.69333 24.5681 3.192C25.2508 2.66933 26.1735 2.408 27.3361 2.408C28.5095 2.408 29.4108 2.68 30.0401 3.224C30.6801 3.75733 31.0481 4.50933 31.1441 5.48H29.2721ZM34.1793 5.208H36.0673V13H34.1793V5.208ZM33.9553 2.712C33.9553 2.37067 34.0566 2.104 34.2593 1.912C34.4619 1.70933 34.7499 1.608 35.1233 1.608C35.4859 1.608 35.7686 1.70933 35.9713 1.912C36.1846 2.104 36.2913 2.37067 36.2913 2.712C36.2913 3.05333 36.1846 3.32533 35.9713 3.528C35.7686 3.72 35.4859 3.816 35.1233 3.816C34.7499 3.816 34.4619 3.72 34.2593 3.528C34.0566 3.32533 33.9553 3.05333 33.9553 2.712ZM39.9413 9.816C39.3119 9.28267 38.9973 8.616 38.9973 7.816C38.9973 6.97333 39.3279 6.29067 39.9893 5.768C40.6293 5.26667 41.3599 5.016 42.1813 5.016C43.0133 5.016 43.7066 5.17067 44.2613 5.48C44.3253 4.872 44.5866 4.38133 45.0453 4.008C45.4933 3.63467 46.0213 3.448 46.6293 3.448L46.5333 5.256C45.6159 5.256 45.1413 5.56 45.1093 6.168C45.5039 6.65867 45.7013 7.16 45.7013 7.672C45.7013 8.184 45.6106 8.616 45.4293 8.968C45.2479 9.30933 45.0026 9.59733 44.6933 9.832C44.0533 10.344 43.2746 10.6 42.3573 10.6C41.8346 10.6 41.3599 10.52 40.9333 10.36C40.5066 10.488 40.2933 10.744 40.2933 11.128C40.2933 11.608 40.6986 11.848 41.5093 11.848H44.1173C45.8879 11.848 46.7733 12.4667 46.7733 13.704C46.7733 14.12 46.6666 14.5253 46.4533 14.92C46.2506 15.3253 45.9519 15.6827 45.5573 15.992C44.6826 16.6747 43.5839 17.016 42.2613 17.016C40.9813 17.016 39.9413 16.7547 39.1413 16.232C38.3946 15.7307 38.0213 15.1173 38.0213 14.392C38.0213 13.912 38.1653 13.528 38.4533 13.24C38.7519 12.9627 39.1413 12.7867 39.6213 12.712C38.9919 12.328 38.6773 11.8533 38.6773 11.288C38.6773 10.9147 38.7946 10.6053 39.0293 10.36C39.2639 10.104 39.5679 9.92267 39.9413 9.816ZM41.3813 13.176C40.3786 13.2187 39.8773 13.5973 39.8773 14.312C39.8773 14.6747 40.0853 14.9627 40.5013 15.176C40.9279 15.4 41.4293 15.512 42.0052 15.512C42.5813 15.512 43.0293 15.464 43.3493 15.368C43.6799 15.272 43.9573 15.144 44.1813 14.984C44.6613 14.664 44.9013 14.28 44.9013 13.832C44.9013 13.64 44.8319 13.48 44.6933 13.352C44.5653 13.2347 44.3733 13.176 44.1173 13.176H41.3813ZM43.8293 7.8C43.8293 7.36267 43.7066 7.01067 43.4613 6.744C43.2266 6.46667 42.8639 6.328 42.3733 6.328C41.8826 6.328 41.5093 6.46667 41.2533 6.744C40.9973 7.01067 40.8693 7.36267 40.8693 7.8C40.8693 8.22667 40.9973 8.57867 41.2533 8.856C41.5093 9.13333 41.8826 9.272 42.3733 9.272C42.8639 9.272 43.2266 9.13333 43.4613 8.856C43.7066 8.57867 43.8293 8.22667 43.8293 7.8ZM50.4378 6.568C50.9498 5.53333 51.7711 5.016 52.9018 5.016C53.8618 5.016 54.5818 5.33067 55.0618 5.96C55.5524 6.58933 55.7978 7.42133 55.7978 8.456V13H53.9098V8.456C53.9098 7.88 53.7711 7.448 53.4938 7.16C53.2164 6.86133 52.8271 6.712 52.3258 6.712C51.8244 6.712 51.3924 6.936 51.0298 7.384C50.6778 7.832 50.4911 8.504 50.4698 9.4V13H48.5818V5.224H50.2298L50.4378 6.568ZM67.7654 11.592C67.2747 12.6267 66.4854 13.144 65.3974 13.144C64.0214 13.144 63.1147 12.6053 62.6774 11.528C62.5174 11.1547 62.4374 10.7013 62.4374 10.168V5.208H64.3254V9.976C64.3254 10.488 64.448 10.872 64.6934 11.128C64.9387 11.3733 65.2374 11.496 65.5894 11.496C65.952 11.496 66.256 11.448 66.5014 11.352C66.7467 11.2453 66.96 11.0907 67.1414 10.888C67.536 10.4293 67.744 9.816 67.7654 9.048V5.208H69.6534V13H67.7654V11.592ZM74.3566 6.28C74.8473 5.43733 75.594 5.016 76.5966 5.016C77.5566 5.016 78.378 5.37867 79.0606 6.104C79.786 6.872 80.1486 7.87467 80.1486 9.112C80.1486 10.36 79.7806 11.368 79.0446 12.136C78.362 12.8613 77.546 13.224 76.5966 13.224C75.6473 13.224 74.954 12.9413 74.5166 12.376V16.792H72.6286V5.224H74.1806L74.3566 6.28ZM76.2606 11.512C76.4846 11.512 76.714 11.464 76.9486 11.368C77.194 11.272 77.4126 11.1227 77.6046 10.92C78.0313 10.472 78.2446 9.87467 78.2446 9.128C78.2446 8.37067 78.058 7.77867 77.6846 7.352C77.322 6.92533 76.874 6.712 76.3406 6.712C75.818 6.712 75.386 6.86667 75.0446 7.176C74.714 7.47467 74.538 7.90667 74.5166 8.472V9.864C74.5166 10.3653 74.6926 10.7707 75.0446 11.08C75.3753 11.368 75.7806 11.512 76.2606 11.512Z" fill="#010101"/>
</svg>
