<svg width="12" height="12" viewBox="0 0 12 12" fill="none" xmlns="http://www.w3.org/2000/svg">
<path d="M10.6786 5.82143C10.6786 5.57478 10.5843 5.33538 10.4102 5.16853L5.6875 0.44587C5.51339 0.271763 5.274 0.1702 5.02734 0.1702C4.78069 0.1702 4.54855 0.271763 4.37444 0.44587L3.83036 0.989955C3.65625 1.15681 3.55469 1.39621 3.55469 1.64286C3.55469 1.88951 3.65625 2.12891 3.83036 2.29576L5.95592 4.42857H0.848772C0.326451 4.42857 0 4.86384 0 5.35714V6.28571C0 6.77902 0.326451 7.21429 0.848772 7.21429H5.95592L3.83036 9.33984C3.65625 9.51395 3.55469 9.75335 3.55469 10C3.55469 10.2467 3.65625 10.486 3.83036 10.6602L4.37444 11.2042C4.54855 11.3711 4.78069 11.4727 5.02734 11.4727C5.274 11.4727 5.51339 11.3711 5.6875 11.2042L10.4102 6.48158C10.5843 6.30748 10.6786 6.06808 10.6786 5.82143Z" fill="black"/>
</svg>
