<svg width="14" height="15" viewBox="0 0 14 15" fill="none" xmlns="http://www.w3.org/2000/svg">
<path opacity="0.6" fill-rule="evenodd" clip-rule="evenodd" d="M6 0C9.31371 0 12 2.68629 12 6C12 7.39821 11.5217 8.68471 10.7199 9.70484L13.3965 12.3815C13.787 12.772 13.787 13.4051 13.3965 13.7957C13.006 14.1862 12.3728 14.1862 11.9823 13.7957L9.23846 11.0519C8.30428 11.6519 7.19279 12 6 12C2.68629 12 0 9.31371 0 6C0 2.68629 2.68629 0 6 0ZM6 2C3.79086 2 2 3.79086 2 6C2 8.20914 3.79086 10 6 10C8.20914 10 10 8.20914 10 6C10 3.79086 8.20914 2 6 2Z" fill="#4A5266"/>
</svg>
