<svg width="26" height="26" viewBox="0 0 26 26" fill="none" xmlns="http://www.w3.org/2000/svg">
<path d="M15.5685 17.1767C14.9553 17.791 14.1385 18.1291 13.2706 18.1291C12.403 18.1291 11.5861 17.791 10.973 17.1767L6.36881 12.5727C5.75469 11.9594 5.41668 11.1427 5.41668 10.2749C5.41668 9.40706 5.75469 8.59041 6.36881 7.97727C6.98195 7.36294 7.79881 7.02493 8.66664 7.02493C9.53428 7.02493 10.3511 7.36294 10.9643 7.97727L13.2706 10.2824L19.6375 3.9158C17.5574 2.14244 14.8643 1.06673 11.9166 1.06673C5.33535 1.06673 0 6.40208 0 12.9831C0 19.5644 5.33535 24.8997 11.9166 24.8997C18.4977 24.8997 23.833 19.5644 23.833 12.9831C23.833 11.7515 23.6458 10.5641 23.299 9.44614L15.5685 17.1767Z" fill="#FACC0C"/>
<path d="M13.2706 15.9623C12.9933 15.9623 12.716 15.8562 12.5048 15.645L7.90078 11.0408C7.47708 10.6173 7.47708 9.93252 7.90078 9.50902C8.32429 9.08532 9.00884 9.08532 9.43254 9.50902L13.2706 13.3471L24.1506 2.46736C24.5741 2.04386 25.2587 2.04386 25.6824 2.46736C26.1059 2.89106 26.1059 3.57561 25.6824 3.99931L14.0365 15.645C13.8255 15.8562 13.548 15.9623 13.2706 15.9623Z" fill="#010101"/>
</svg>
