<svg width="50" height="50" viewBox="0 0 50 50" fill="none" xmlns="http://www.w3.org/2000/svg">
<path d="M46.0938 0H3.90625C1.74805 0 0 1.74805 0 3.90625V46.0938C0 48.252 1.74805 50 3.90625 50H46.0938C48.252 50 50 48.252 50 46.0938V3.90625C50 1.74805 48.252 0 46.0938 0ZM48.4375 46.0938C48.4375 47.3926 47.3926 48.4375 46.0938 48.4375H3.90625C2.60742 48.4375 1.5625 47.3926 1.5625 46.0938V3.90625C1.5625 2.60742 2.60742 1.5625 3.90625 1.5625H46.0938C47.3926 1.5625 48.4375 2.60742 48.4375 3.90625V46.0938Z" fill="black"/>
<path d="M41.4062 7.8125H8.59375C8.16406 7.8125 7.8125 8.16406 7.8125 8.59375V17.9688C7.8125 18.3984 8.16406 18.75 8.59375 18.75H41.4062C41.8359 18.75 42.1875 18.3984 42.1875 17.9688V8.59375C42.1875 8.16406 41.8359 7.8125 41.4062 7.8125ZM40.625 17.1875H9.375V9.375H40.625V17.1875Z" fill="black"/>
<path d="M21.0938 21.0938H8.59375C8.16406 21.0938 7.8125 21.4453 7.8125 21.875V34.375C7.8125 34.8047 8.16406 35.1562 8.59375 35.1562H21.0938C21.5234 35.1562 21.875 34.8047 21.875 34.375V21.875C21.875 21.4453 21.5234 21.0938 21.0938 21.0938ZM9.375 33.5938V23.7598L19.209 33.5938H9.375ZM20.3125 32.4902L10.4785 22.6562H20.3125V32.4902Z" fill="black"/>
<path d="M41.4062 21.0938H24.2188C23.7891 21.0938 23.4375 21.4453 23.4375 21.875V26.5625C23.4375 26.9922 23.7891 27.3438 24.2188 27.3438H41.4062C41.8359 27.3438 42.1875 26.9922 42.1875 26.5625V21.875C42.1875 21.4453 41.8359 21.0938 41.4062 21.0938ZM40.625 25.7812H25V22.6562H40.625V25.7812Z" fill="#FCEA0B"/>
<path d="M42.1875 29.6875H23.4375V31.25H42.1875V29.6875Z" fill="#FCEA0B"/>
<path d="M42.1875 33.5938H23.4375V35.1562H42.1875V33.5938Z" fill="#FCEA0B"/>
<path d="M42.1875 37.5H14.0625V39.0625H42.1875V37.5Z" fill="#FCEA0B"/>
<path d="M35.9375 41.4062H7.8125V42.9688H35.9375V41.4062Z" fill="#FCEA0B"/>
<path d="M9.375 37.5H7.8125V39.0625H9.375V37.5Z" fill="#FCEA0B"/>
<path d="M12.5 37.5H10.9375V39.0625H12.5V37.5Z" fill="#FCEA0B"/>
</svg>
