<svg width="35" height="59" viewBox="0 0 35 59" fill="none" xmlns="http://www.w3.org/2000/svg">
<path d="M33.9966 22.4473C33.448 22.4473 32.9931 22.9062 32.9931 23.4596V29.6552C32.9931 38.267 26.0493 45.286 17.5 45.286C8.95069 45.2725 2.00688 38.267 2.00688 29.6552V23.4596C2.00688 22.9062 1.55199 22.4473 1.00344 22.4473C0.454893 22.4473 0 22.8927 0 23.4596V29.6552C0 38.0915 5.90023 45.1645 13.7538 46.8922L13.1116 51.6436H8.88379C6.16781 51.6436 3.94687 53.8842 3.94687 56.6243C3.94687 57.9337 5.00382 58.9865 6.28823 58.9865H28.6984C29.9962 58.9865 31.0398 57.9202 31.0398 56.6243C31.0398 53.8842 28.8188 51.6436 26.1028 51.6436H21.875L21.2462 46.8922C29.0998 45.151 35 38.078 35 29.6552V23.4596C35 22.8927 34.5451 22.4473 33.9966 22.4473ZM29.0463 56.6243C29.0463 56.8133 28.8991 56.9618 28.7118 56.9618H6.28823C6.10092 56.9618 5.95375 56.8133 5.95375 56.6243C5.95375 54.9911 7.26491 53.6683 8.88379 53.6683H26.1162C27.7217 53.6683 29.0463 55.0046 29.0463 56.6243ZM19.8547 51.6436H15.1453L15.7339 47.2027C16.3092 47.2567 16.8979 47.2972 17.5 47.2972C18.1021 47.2972 18.6907 47.2702 19.2661 47.2027L19.8547 51.6436Z" fill="black"/>
<path d="M7.71974 35.8373C8.20139 35.5674 8.3887 34.96 8.12112 34.4605C7.27823 32.8948 6.83671 31.1265 6.83671 29.3313V27.752H28.1632V29.3313C28.1632 35.2704 23.3734 40.0892 17.4999 40.0892C15.1051 40.0892 12.8306 39.3063 10.9441 37.8216C10.5026 37.4841 9.87379 37.5516 9.53931 37.997C9.20483 38.4425 9.27173 39.0769 9.71324 39.4143C11.9609 41.1826 14.6502 42.1139 17.4999 42.1139C24.4839 42.1139 30.17 36.3773 30.17 29.3313C30.17 26.8611 30.17 14.8614 30.17 12.7827C30.17 5.73667 24.4839 0 17.4999 0C10.516 0 4.82983 5.73667 4.82983 12.7827V29.3313C4.82983 31.464 5.365 33.5697 6.35506 35.4324C6.62265 35.9183 7.22471 36.1073 7.71974 35.8373ZM17.4999 2.02471C22.6509 2.02471 26.959 5.72318 27.9491 10.623H21.5271C20.9785 10.623 20.5236 11.0819 20.5236 11.6353C20.5236 12.1887 20.9785 12.6477 21.5271 12.6477H28.1498C28.1498 12.6882 28.1498 12.7422 28.1498 12.7827V15.3338H21.5137C20.9652 15.3338 20.5103 15.7927 20.5103 16.3461C20.5103 16.8996 20.9652 17.3585 21.5137 17.3585H28.1498V20.0446H21.5137C20.9652 20.0446 20.5103 20.5035 20.5103 21.057C20.5103 21.6104 20.9652 22.0693 21.5137 22.0693H28.1498V25.7273H6.83671V22.0693H13.4728C14.0213 22.0693 14.4762 21.6104 14.4762 21.057C14.4762 20.5035 14.0213 20.0446 13.4728 20.0446H6.83671V17.3585H13.4728C14.0213 17.3585 14.4762 16.8996 14.4762 16.3461C14.4762 15.7927 14.0213 15.3338 13.4728 15.3338H6.83671V12.7827C6.83671 12.7422 6.83671 12.6882 6.83671 12.6477H13.4594C14.008 12.6477 14.4629 12.1887 14.4629 11.6353C14.4629 11.0819 14.008 10.623 13.4594 10.623H7.0374C8.04084 5.72318 12.3489 2.02471 17.4999 2.02471Z" fill="#FFE706"/>
</svg>
