<svg width="57" height="57" viewBox="0 0 57 57" fill="none" xmlns="http://www.w3.org/2000/svg">
<g clip-path="url(#clip0)">
<path d="M28.5001 0C25.3532 0 22.8 2.55313 22.8 5.7C22.8 8.84688 25.3532 11.4 28.5001 11.4C31.6469 11.4 34.2001 8.84688 34.2001 5.7C34.2001 2.55313 31.6469 0 28.5001 0ZM28.5001 9.5C26.3982 9.5 24.7 7.80188 24.7 5.7C24.7 3.59812 26.3982 1.9 28.5001 1.9C30.6019 1.9 32.3001 3.59812 32.3001 5.7C32.3001 7.80188 30.6019 9.5 28.5001 9.5Z" fill="black"/>
<path d="M32.2999 12.3501H32.0743L31.8724 12.4451C29.7468 13.502 27.2531 13.502 25.1275 12.4451L24.9256 12.3501H24.7C22.0756 12.3501 19.95 14.4757 19.95 17.1001V22.8001C19.95 24.3795 21.2206 25.6501 22.8 25.6501H34.1999C35.7793 25.6501 37.0499 24.3795 37.0499 22.8001V17.1001C37.0499 14.4757 34.9243 12.3501 32.2999 12.3501ZM35.1499 22.8001C35.1499 23.3226 34.7224 23.7501 34.1999 23.7501H22.8C22.2775 23.7501 21.85 23.3226 21.85 22.8001V17.1001C21.85 15.6038 23.0018 14.3688 24.4981 14.262C27.0393 15.4376 29.9606 15.4376 32.5018 14.262C33.9981 14.3688 35.1499 15.6038 35.1499 17.1001V22.8001Z" fill="black"/>
<path d="M48.45 31.3501C45.3031 31.3501 42.75 33.9032 42.75 37.0501C42.75 40.197 45.3031 42.7501 48.45 42.7501C51.5969 42.7501 54.15 40.197 54.15 37.0501C54.15 33.9032 51.5969 31.3501 48.45 31.3501ZM48.45 40.8501C46.3481 40.8501 44.65 39.152 44.65 37.0501C44.65 34.9482 46.3481 33.2501 48.45 33.2501C50.5519 33.2501 52.25 34.9482 52.25 37.0501C52.25 39.152 50.5519 40.8501 48.45 40.8501Z" fill="black"/>
<path d="M52.2499 43.7H52.0243L51.8224 43.7949C49.6968 44.8518 47.203 44.8518 45.0774 43.7949L44.8755 43.7H44.6499C42.0255 43.7 39.8999 45.8256 39.8999 48.45V54.15C39.8999 55.7293 41.1705 57 42.7499 57H54.1499C55.7293 57 56.9999 55.7293 56.9999 54.15V48.45C56.9999 45.8256 54.8743 43.7 52.2499 43.7ZM55.0999 54.15C55.0999 54.6725 54.6724 55.1 54.1499 55.1H42.7499C42.2274 55.1 41.7999 54.6725 41.7999 54.15V48.45C41.7999 46.9537 42.9518 45.7187 44.448 45.6118C46.9893 46.7875 49.9105 46.7875 52.4518 45.6118C53.948 45.7187 55.0999 46.9537 55.0999 48.45V54.15Z" fill="black"/>
<path d="M8.5501 31.3501C5.40322 31.3501 2.8501 33.9032 2.8501 37.0501C2.8501 40.197 5.40322 42.7501 8.5501 42.7501C11.697 42.7501 14.2501 40.197 14.2501 37.0501C14.2501 33.9032 11.697 31.3501 8.5501 31.3501ZM8.5501 40.8501C6.44822 40.8501 4.7501 39.152 4.7501 37.0501C4.7501 34.9482 6.44822 33.2501 8.5501 33.2501C10.652 33.2501 12.3501 34.9482 12.3501 37.0501C12.3501 39.152 10.652 40.8501 8.5501 40.8501Z" fill="black"/>
<path d="M12.35 43.7H12.1244L11.9225 43.7949C9.79688 44.8518 7.30312 44.8518 5.1775 43.7949L4.97563 43.7H4.75C2.12563 43.7 0 45.8256 0 48.45V54.15C0 55.7293 1.27062 57 2.85 57H14.25C15.8294 57 17.1 55.7293 17.1 54.15V48.45C17.1 45.8256 14.9744 43.7 12.35 43.7ZM15.2 54.15C15.2 54.6725 14.7725 55.1 14.25 55.1H2.85C2.3275 55.1 1.9 54.6725 1.9 54.15V48.45C1.9 46.9537 3.05188 45.7187 4.54813 45.6118C7.08938 46.7875 10.0106 46.7875 12.5519 45.6118C14.0481 45.7187 15.2 46.9537 15.2 48.45V54.15Z" fill="black"/>
<path d="M37.9288 48.2482C37.7269 47.7613 37.1688 47.5357 36.6819 47.7376C32.395 49.5307 27.6331 49.8632 23.1325 48.6757L24.0231 48.4145C24.5219 48.272 24.8188 47.7376 24.6644 47.2388C24.51 46.7401 23.9875 46.4432 23.4888 46.5976L19.6888 47.7138C19.6769 47.7138 19.665 47.7257 19.6531 47.7376C19.57 47.7732 19.4869 47.8207 19.4037 47.8682C19.3681 47.8801 19.3444 47.9038 19.3088 47.9276C19.2138 48.0226 19.1306 48.1295 19.0713 48.2482C19.0238 48.367 19 48.5095 19 48.6401C19.0238 48.7707 19.0594 48.9013 19.095 49.0201C19.095 49.032 19.095 49.0438 19.1069 49.0676L21.0069 52.7013C21.2444 53.1645 21.8263 53.3426 22.2894 53.1051C22.7525 52.8676 22.9306 52.2857 22.6931 51.8226L21.9213 50.3501C27.0275 51.882 32.5138 51.5851 37.43 49.507C37.905 49.2813 38.1306 48.7232 37.9288 48.2482Z" fill="#F9E316"/>
<path d="M53.8768 24.9732C53.5087 24.605 52.9031 24.605 52.535 24.9732L51.1812 26.3269C50.3975 18.0025 45.1131 10.7825 37.4181 7.51691C36.9312 7.31503 36.3731 7.54066 36.1712 8.01566C35.9693 8.49066 36.195 9.06066 36.67 9.26253C43.5693 12.1957 48.3668 18.6082 49.2337 26.0538L48.165 24.985C47.785 24.6169 47.1912 24.6288 46.8231 25.0088C46.4668 25.3769 46.4668 25.9588 46.8231 26.3269L49.6731 29.1769C50.0412 29.545 50.6468 29.545 51.015 29.1769L53.865 26.3269C54.245 25.9469 54.245 25.3532 53.8768 24.9732Z" fill="#F9E316"/>
<path d="M20.8762 8.22934C20.8762 8.16996 20.8643 8.12246 20.8525 8.06309C20.8525 8.05121 20.8406 8.05121 20.8406 8.03933C20.8406 8.02746 20.8406 8.02746 20.8406 8.01559C20.8168 7.96809 20.7812 7.92059 20.7456 7.88496C20.71 7.82559 20.6743 7.77808 20.6387 7.73058C20.5793 7.68308 20.52 7.63559 20.4487 7.59996C20.4131 7.57621 20.3775 7.54059 20.3418 7.52871L16.5418 5.79496C16.055 5.59308 15.4968 5.83059 15.3068 6.31746C15.1168 6.78059 15.3187 7.30309 15.7581 7.52871L17.7293 8.43121C10.3193 12.3737 5.69995 20.1043 5.69995 28.5C5.69995 29.0225 6.12745 29.45 6.64995 29.45C7.17245 29.45 7.59995 29.0225 7.59995 28.5C7.59995 21.1018 11.5068 14.25 17.8837 10.4975L17.195 11.9343C16.9693 12.4093 17.1712 12.9675 17.6343 13.205C17.765 13.2643 17.9075 13.3 18.05 13.3C18.4181 13.3 18.7506 13.0862 18.905 12.7656L20.805 8.79934C20.805 8.78746 20.805 8.77559 20.8168 8.77559C20.8406 8.71621 20.8643 8.64496 20.8643 8.57371C20.8762 8.52621 20.8881 8.46684 20.9 8.41934C20.9 8.34809 20.8881 8.28871 20.8762 8.22934Z" fill="#F9E316"/>
</g>
<defs>
<clipPath id="clip0">
<rect width="57" height="57" fill="white"/>
</clipPath>
</defs>
</svg>
