<svg width="56" height="18" viewBox="0 0 56 18" fill="none" xmlns="http://www.w3.org/2000/svg">
<path d="M11.4286 11.7768C11.4286 9.42857 10.8482 6.71429 8.50893 6.71429C7.78571 7.41964 6.80357 7.85714 5.71429 7.85714C4.625 7.85714 3.64286 7.41964 2.91964 6.71429C0.580357 6.71429 0 9.42857 0 11.7768C0 13.0804 0.857143 14.1429 1.90179 14.1429H9.52679C10.5714 14.1429 11.4286 13.0804 11.4286 11.7768ZM9.14286 3.85714C9.14286 1.96428 7.60714 0.428571 5.71429 0.428571C3.82143 0.428571 2.28571 1.96428 2.28571 3.85714C2.28571 5.75 3.82143 7.28571 5.71429 7.28571C7.60714 7.28571 9.14286 5.75 9.14286 3.85714Z" fill="#FACC0C"/>
<path d="M18.8448 11.352H23.1168V13H16.9568V2.616H18.8448V11.352ZM27.919 5.016C28.4417 5.016 28.9323 5.10133 29.391 5.272C29.8497 5.432 30.2443 5.68267 30.575 6.024C31.311 6.77067 31.679 7.80533 31.679 9.128C31.679 10.4293 31.311 11.4533 30.575 12.2C29.9137 12.8827 29.0283 13.224 27.919 13.224C26.8097 13.224 25.9137 12.8827 25.231 12.2C24.495 11.464 24.127 10.44 24.127 9.128C24.127 7.79467 24.495 6.76 25.231 6.024C25.903 5.352 26.799 5.016 27.919 5.016ZM29.791 9.112C29.791 8.29067 29.631 7.67733 29.311 7.272C28.991 6.856 28.543 6.648 27.967 6.648C27.4017 6.648 26.9377 6.856 26.575 7.272C26.2123 7.67733 26.031 8.29067 26.031 9.112C26.031 9.93333 26.191 10.552 26.511 10.968C26.8417 11.3733 27.2897 11.576 27.855 11.576C28.4203 11.576 28.8843 11.3733 29.247 10.968C29.6097 10.552 29.791 9.93333 29.791 9.112ZM34.5975 9.816C33.9682 9.28267 33.6535 8.616 33.6535 7.816C33.6535 6.97333 33.9842 6.29067 34.6455 5.768C35.2855 5.26667 36.0162 5.016 36.8375 5.016C37.6695 5.016 38.3628 5.17067 38.9175 5.48C38.9815 4.872 39.2428 4.38133 39.7015 4.008C40.1495 3.63467 40.6775 3.448 41.2855 3.448L41.1895 5.256C40.2722 5.256 39.7975 5.56 39.7655 6.168C40.1602 6.65867 40.3575 7.16 40.3575 7.672C40.3575 8.184 40.2668 8.616 40.0855 8.968C39.9042 9.30933 39.6588 9.59733 39.3495 9.832C38.7095 10.344 37.9308 10.6 37.0135 10.6C36.4908 10.6 36.0162 10.52 35.5895 10.36C35.1628 10.488 34.9495 10.744 34.9495 11.128C34.9495 11.608 35.3548 11.848 36.1655 11.848H38.7735C40.5442 11.848 41.4295 12.4667 41.4295 13.704C41.4295 14.12 41.3228 14.5253 41.1095 14.92C40.9068 15.3253 40.6082 15.6827 40.2135 15.992C39.3388 16.6747 38.2402 17.016 36.9175 17.016C35.6375 17.016 34.5975 16.7547 33.7975 16.232C33.0508 15.7307 32.6775 15.1173 32.6775 14.392C32.6775 13.912 32.8215 13.528 33.1095 13.24C33.4082 12.9627 33.7975 12.7867 34.2775 12.712C33.6482 12.328 33.3335 11.8533 33.3335 11.288C33.3335 10.9147 33.4508 10.6053 33.6855 10.36C33.9202 10.104 34.2242 9.92267 34.5975 9.816ZM36.0375 13.176C35.0348 13.2187 34.5335 13.5973 34.5335 14.312C34.5335 14.6747 34.7415 14.9627 35.1575 15.176C35.5842 15.4 36.0855 15.512 36.6615 15.512C37.2375 15.512 37.6855 15.464 38.0055 15.368C38.3362 15.272 38.6135 15.144 38.8375 14.984C39.3175 14.664 39.5575 14.28 39.5575 13.832C39.5575 13.64 39.4882 13.48 39.3495 13.352C39.2215 13.2347 39.0295 13.176 38.7735 13.176H36.0375ZM38.4855 7.8C38.4855 7.36267 38.3628 7.01067 38.1175 6.744C37.8828 6.46667 37.5202 6.328 37.0295 6.328C36.5388 6.328 36.1655 6.46667 35.9095 6.744C35.6535 7.01067 35.5255 7.36267 35.5255 7.8C35.5255 8.22667 35.6535 8.57867 35.9095 8.856C36.1655 9.13333 36.5388 9.272 37.0295 9.272C37.5202 9.272 37.8828 9.13333 38.1175 8.856C38.3628 8.57867 38.4855 8.22667 38.4855 7.8ZM43.398 5.208H45.286V13H43.398V5.208ZM43.174 2.712C43.174 2.37067 43.2753 2.104 43.478 1.912C43.6807 1.70933 43.9687 1.608 44.342 1.608C44.7047 1.608 44.9873 1.70933 45.19 1.912C45.4033 2.104 45.51 2.37067 45.51 2.712C45.51 3.05333 45.4033 3.32533 45.19 3.528C44.9873 3.72 44.7047 3.816 44.342 3.816C43.9687 3.816 43.6807 3.72 43.478 3.528C43.2753 3.32533 43.174 3.05333 43.174 2.712ZM50.344 6.568C50.856 5.53333 51.6773 5.016 52.808 5.016C53.768 5.016 54.488 5.33067 54.968 5.96C55.4587 6.58933 55.704 7.42133 55.704 8.456V13H53.816V8.456C53.816 7.88 53.6773 7.448 53.4 7.16C53.1227 6.86133 52.7333 6.712 52.232 6.712C51.7307 6.712 51.2987 6.936 50.936 7.384C50.584 7.832 50.3973 8.504 50.376 9.4V13H48.488V5.224H50.136L50.344 6.568Z" fill="#010101"/>
</svg>
